# xmcd
#
# Track frame offsets: 
#        150
#        10757
#        21247
#        36540
#        49060
#        60182
#        72200
#        84905
#        95950
#        106997
#        119127
#        127777
#        139750
#        154170
#        167175
#        177240
#
# Disc length: 2527 seconds
#
# Revision: 2
# Processed by: cddbd v1.5.2PL0 Copyright (c) Steve Scherf et al.
# Submitted via: ExactAudioCopy v0.99pb5
#
DISCID=d709dd10
DTITLE=Chuck Jackson - The Very Best Of 1961-1967
DYEAR=1997
DGENRE=Blues
TTITLE0=I dont want to cry
TTITLE1=I wake up crying
TTITLE2=Any day now (my wild beautiful bird)
TTITLE3=I keep forgettin'
TTITLE4=Getting ready for the heartbreak
TTITLE5=Tell him I'm not home
TTITLE6=Tears of joy
TTITLE7=Any other way
TTITLE8=Hand it over
TTITLE9=Beg me
TTITLE10=Somebody new
TTITLE11=Since I don't have you
TTITLE12=I need you
TTITLE13=Something you got (with Maxine Brown)
TTITLE14=If I didn't love you
TTITLE15=Shame on me
EXTD=
EXTT0=
EXTT1=
EXTT2=
EXTT3=
EXTT4=
EXTT5=
EXTT6=
EXTT7=
EXTT8=
EXTT9=
EXTT10=
EXTT11=
EXTT12=
EXTT13=
EXTT14=
EXTT15=
PLAYORDER=
